<?xml version="1.0" encoding="utf-8" standalone="no"?>
<!DOCTYPE svg PUBLIC "-//W3C//DTD SVG 1.1//EN"
  "http://www.w3.org/Graphics/SVG/1.1/DTD/svg11.dtd">
<svg xmlns:xlink="http://www.w3.org/1999/xlink" width="758.16pt" height="470.16pt" viewBox="0 0 758.16 470.16" xmlns="http://www.w3.org/2000/svg" version="1.1">
 <metadata>
  <rdf:RDF xmlns:dc="http://purl.org/dc/elements/1.1/" xmlns:cc="http://creativecommons.org/ns#" xmlns:rdf="http://www.w3.org/1999/02/22-rdf-syntax-ns#">
   <cc:Work>
    <dc:type rdf:resource="http://purl.org/dc/dcmitype/StillImage"/>
    <dc:date>2023-02-22T14:44:30.996121</dc:date>
    <dc:format>image/svg+xml</dc:format>
    <dc:creator>
     <cc:Agent>
      <dc:title>Matplotlib v3.5.1, https://matplotlib.org/</dc:title>
     </cc:Agent>
    </dc:creator>
   </cc:Work>
  </rdf:RDF>
 </metadata>
 <defs>
  <style type="text/css">*{stroke-linejoin: round; stroke-linecap: butt}</style>
 </defs>
 <g id="figure_1">
  <g id="patch_1">
   <path d="M 0 470.16 
L 758.16 470.16 
L 758.16 0 
L 0 0 
z
" style="fill: #ffffff"/>
  </g>
  <g id="axes_1">
   <g id="patch_2">
    <path d="M 94.77 418.4424 
L 682.344 418.4424 
L 682.344 56.4192 
L 94.77 56.4192 
z
" style="fill: #ffffff"/>
   </g>
   <g id="matplotlib.axis_1">
    <g id="xtick_1">
     <g id="line2d_1">
      <defs>
       <path id="m5f389c8ab6" d="M 0 0 
L 0 3.5 
" style="stroke: #000000; stroke-width: 0.8"/>
      </defs>
      <g>
       <use xlink:href="#m5f389c8ab6" x="130.79388" y="418.4424" style="stroke: #000000; stroke-width: 0.8"/>
      </g>
     </g>
     <g id="text_1">
      <!-- −6 -->
      <g transform="translate(123.422786 433.040838)scale(0.1 -0.1)">
       <defs>
        <path id="DejaVuSans-2212" d="M 678 2272 
L 4684 2272 
L 4684 1741 
L 678 1741 
L 678 2272 
z
" transform="scale(0.015625)"/>
        <path id="DejaVuSans-36" d="M 2113 2584 
Q 1688 2584 1439 2293 
Q 1191 2003 1191 1497 
Q 1191 994 1439 701 
Q 1688 409 2113 409 
Q 2538 409 2786 701 
Q 3034 994 3034 1497 
Q 3034 2003 2786 2293 
Q 2538 2584 2113 2584 
z
M 3366 4563 
L 3366 3988 
Q 3128 4100 2886 4159 
Q 2644 4219 2406 4219 
Q 1781 4219 1451 3797 
Q 1122 3375 1075 2522 
Q 1259 2794 1537 2939 
Q 1816 3084 2150 3084 
Q 2853 3084 3261 2657 
Q 3669 2231 3669 1497 
Q 3669 778 3244 343 
Q 2819 -91 2113 -91 
Q 1303 -91 875 529 
Q 447 1150 447 2328 
Q 447 3434 972 4092 
Q 1497 4750 2381 4750 
Q 2619 4750 2861 4703 
Q 3103 4656 3366 4563 
z
" transform="scale(0.015625)"/>
       </defs>
       <use xlink:href="#DejaVuSans-2212"/>
       <use xlink:href="#DejaVuSans-36" x="83.789062"/>
      </g>
     </g>
    </g>
    <g id="xtick_2">
     <g id="line2d_2">
      <g>
       <use xlink:href="#m5f389c8ab6" x="216.71492" y="418.4424" style="stroke: #000000; stroke-width: 0.8"/>
      </g>
     </g>
     <g id="text_2">
      <!-- −4 -->
      <g transform="translate(209.343826 433.040838)scale(0.1 -0.1)">
       <defs>
        <path id="DejaVuSans-34" d="M 2419 4116 
L 825 1625 
L 2419 1625 
L 2419 4116 
z
M 2253 4666 
L 3047 4666 
L 3047 1625 
L 3713 1625 
L 3713 1100 
L 3047 1100 
L 3047 0 
L 2419 0 
L 2419 1100 
L 313 1100 
L 313 1709 
L 2253 4666 
z
" transform="scale(0.015625)"/>
       </defs>
       <use xlink:href="#DejaVuSans-2212"/>
       <use xlink:href="#DejaVuSans-34" x="83.789062"/>
      </g>
     </g>
    </g>
    <g id="xtick_3">
     <g id="line2d_3">
      <g>
       <use xlink:href="#m5f389c8ab6" x="302.63596" y="418.4424" style="stroke: #000000; stroke-width: 0.8"/>
      </g>
     </g>
     <g id="text_3">
      <!-- −2 -->
      <g transform="translate(295.264866 433.040838)scale(0.1 -0.1)">
       <defs>
        <path id="DejaVuSans-32" d="M 1228 531 
L 3431 531 
L 3431 0 
L 469 0 
L 469 531 
Q 828 903 1448 1529 
Q 2069 2156 2228 2338 
Q 2531 2678 2651 2914 
Q 2772 3150 2772 3378 
Q 2772 3750 2511 3984 
Q 2250 4219 1831 4219 
Q 1534 4219 1204 4116 
Q 875 4013 500 3803 
L 500 4441 
Q 881 4594 1212 4672 
Q 1544 4750 1819 4750 
Q 2544 4750 2975 4387 
Q 3406 4025 3406 3419 
Q 3406 3131 3298 2873 
Q 3191 2616 2906 2266 
Q 2828 2175 2409 1742 
Q 1991 1309 1228 531 
z
" transform="scale(0.015625)"/>
       </defs>
       <use xlink:href="#DejaVuSans-2212"/>
       <use xlink:href="#DejaVuSans-32" x="83.789062"/>
      </g>
     </g>
    </g>
    <g id="xtick_4">
     <g id="line2d_4">
      <g>
       <use xlink:href="#m5f389c8ab6" x="388.557" y="418.4424" style="stroke: #000000; stroke-width: 0.8"/>
      </g>
     </g>
     <g id="text_4">
      <!-- 0 -->
      <g transform="translate(385.37575 433.040838)scale(0.1 -0.1)">
       <defs>
        <path id="DejaVuSans-30" d="M 2034 4250 
Q 1547 4250 1301 3770 
Q 1056 3291 1056 2328 
Q 1056 1369 1301 889 
Q 1547 409 2034 409 
Q 2525 409 2770 889 
Q 3016 1369 3016 2328 
Q 3016 3291 2770 3770 
Q 2525 4250 2034 4250 
z
M 2034 4750 
Q 2819 4750 3233 4129 
Q 3647 3509 3647 2328 
Q 3647 1150 3233 529 
Q 2819 -91 2034 -91 
Q 1250 -91 836 529 
Q 422 1150 422 2328 
Q 422 3509 836 4129 
Q 1250 4750 2034 4750 
z
" transform="scale(0.015625)"/>
       </defs>
       <use xlink:href="#DejaVuSans-30"/>
      </g>
     </g>
    </g>
    <g id="xtick_5">
     <g id="line2d_5">
      <g>
       <use xlink:href="#m5f389c8ab6" x="474.47804" y="418.4424" style="stroke: #000000; stroke-width: 0.8"/>
      </g>
     </g>
     <g id="text_5">
      <!-- 2 -->
      <g transform="translate(471.29679 433.040838)scale(0.1 -0.1)">
       <use xlink:href="#DejaVuSans-32"/>
      </g>
     </g>
    </g>
    <g id="xtick_6">
     <g id="line2d_6">
      <g>
       <use xlink:href="#m5f389c8ab6" x="560.39908" y="418.4424" style="stroke: #000000; stroke-width: 0.8"/>
      </g>
     </g>
     <g id="text_6">
      <!-- 4 -->
      <g transform="translate(557.21783 433.040838)scale(0.1 -0.1)">
       <use xlink:href="#DejaVuSans-34"/>
      </g>
     </g>
    </g>
    <g id="xtick_7">
     <g id="line2d_7">
      <g>
       <use xlink:href="#m5f389c8ab6" x="646.32012" y="418.4424" style="stroke: #000000; stroke-width: 0.8"/>
      </g>
     </g>
     <g id="text_7">
      <!-- 6 -->
      <g transform="translate(643.13887 433.040838)scale(0.1 -0.1)">
       <use xlink:href="#DejaVuSans-36"/>
      </g>
     </g>
    </g>
    <g id="text_8">
     <!-- X values -->
     <g transform="translate(367.280437 446.718963)scale(0.1 -0.1)">
      <defs>
       <path id="DejaVuSans-58" d="M 403 4666 
L 1081 4666 
L 2241 2931 
L 3406 4666 
L 4084 4666 
L 2584 2425 
L 4184 0 
L 3506 0 
L 2194 1984 
L 872 0 
L 191 0 
L 1856 2491 
L 403 4666 
z
" transform="scale(0.015625)"/>
       <path id="DejaVuSans-20" transform="scale(0.015625)"/>
       <path id="DejaVuSans-76" d="M 191 3500 
L 800 3500 
L 1894 563 
L 2988 3500 
L 3597 3500 
L 2284 0 
L 1503 0 
L 191 3500 
z
" transform="scale(0.015625)"/>
       <path id="DejaVuSans-61" d="M 2194 1759 
Q 1497 1759 1228 1600 
Q 959 1441 959 1056 
Q 959 750 1161 570 
Q 1363 391 1709 391 
Q 2188 391 2477 730 
Q 2766 1069 2766 1631 
L 2766 1759 
L 2194 1759 
z
M 3341 1997 
L 3341 0 
L 2766 0 
L 2766 531 
Q 2569 213 2275 61 
Q 1981 -91 1556 -91 
Q 1019 -91 701 211 
Q 384 513 384 1019 
Q 384 1609 779 1909 
Q 1175 2209 1959 2209 
L 2766 2209 
L 2766 2266 
Q 2766 2663 2505 2880 
Q 2244 3097 1772 3097 
Q 1472 3097 1187 3025 
Q 903 2953 641 2809 
L 641 3341 
Q 956 3463 1253 3523 
Q 1550 3584 1831 3584 
Q 2591 3584 2966 3190 
Q 3341 2797 3341 1997 
z
" transform="scale(0.015625)"/>
       <path id="DejaVuSans-6c" d="M 603 4863 
L 1178 4863 
L 1178 0 
L 603 0 
L 603 4863 
z
" transform="scale(0.015625)"/>
       <path id="DejaVuSans-75" d="M 544 1381 
L 544 3500 
L 1119 3500 
L 1119 1403 
Q 1119 906 1312 657 
Q 1506 409 1894 409 
Q 2359 409 2629 706 
Q 2900 1003 2900 1516 
L 2900 3500 
L 3475 3500 
L 3475 0 
L 2900 0 
L 2900 538 
Q 2691 219 2414 64 
Q 2138 -91 1772 -91 
Q 1169 -91 856 284 
Q 544 659 544 1381 
z
M 1991 3584 
L 1991 3584 
z
" transform="scale(0.015625)"/>
       <path id="DejaVuSans-65" d="M 3597 1894 
L 3597 1613 
L 953 1613 
Q 991 1019 1311 708 
Q 1631 397 2203 397 
Q 2534 397 2845 478 
Q 3156 559 3463 722 
L 3463 178 
Q 3153 47 2828 -22 
Q 2503 -91 2169 -91 
Q 1331 -91 842 396 
Q 353 884 353 1716 
Q 353 2575 817 3079 
Q 1281 3584 2069 3584 
Q 2775 3584 3186 3129 
Q 3597 2675 3597 1894 
z
M 3022 2063 
Q 3016 2534 2758 2815 
Q 2500 3097 2075 3097 
Q 1594 3097 1305 2825 
Q 1016 2553 972 2059 
L 3022 2063 
z
" transform="scale(0.015625)"/>
       <path id="DejaVuSans-73" d="M 2834 3397 
L 2834 2853 
Q 2591 2978 2328 3040 
Q 2066 3103 1784 3103 
Q 1356 3103 1142 2972 
Q 928 2841 928 2578 
Q 928 2378 1081 2264 
Q 1234 2150 1697 2047 
L 1894 2003 
Q 2506 1872 2764 1633 
Q 3022 1394 3022 966 
Q 3022 478 2636 193 
Q 2250 -91 1575 -91 
Q 1294 -91 989 -36 
Q 684 19 347 128 
L 347 722 
Q 666 556 975 473 
Q 1284 391 1588 391 
Q 1994 391 2212 530 
Q 2431 669 2431 922 
Q 2431 1156 2273 1281 
Q 2116 1406 1581 1522 
L 1381 1569 
Q 847 1681 609 1914 
Q 372 2147 372 2553 
Q 372 3047 722 3315 
Q 1072 3584 1716 3584 
Q 2034 3584 2315 3537 
Q 2597 3491 2834 3397 
z
" transform="scale(0.015625)"/>
      </defs>
      <use xlink:href="#DejaVuSans-58"/>
      <use xlink:href="#DejaVuSans-20" x="68.505859"/>
      <use xlink:href="#DejaVuSans-76" x="100.292969"/>
      <use xlink:href="#DejaVuSans-61" x="159.472656"/>
      <use xlink:href="#DejaVuSans-6c" x="220.751953"/>
      <use xlink:href="#DejaVuSans-75" x="248.535156"/>
      <use xlink:href="#DejaVuSans-65" x="311.914062"/>
      <use xlink:href="#DejaVuSans-73" x="373.4375"/>
     </g>
    </g>
   </g>
   <g id="matplotlib.axis_2">
    <g id="ytick_1">
     <g id="line2d_8">
      <defs>
       <path id="mad91f64687" d="M 0 0 
L -3.5 0 
" style="stroke: #000000; stroke-width: 0.8"/>
      </defs>
      <g>
       <use xlink:href="#mad91f64687" x="94.77" y="409.738105" style="stroke: #000000; stroke-width: 0.8"/>
      </g>
     </g>
     <g id="text_9">
      <!-- −4 -->
      <g transform="translate(73.027812 413.537324)scale(0.1 -0.1)">
       <use xlink:href="#DejaVuSans-2212"/>
       <use xlink:href="#DejaVuSans-34" x="83.789062"/>
      </g>
     </g>
    </g>
    <g id="ytick_2">
     <g id="line2d_9">
      <g>
       <use xlink:href="#mad91f64687" x="94.77" y="366.661279" style="stroke: #000000; stroke-width: 0.8"/>
      </g>
     </g>
     <g id="text_10">
      <!-- −3 -->
      <g transform="translate(73.027812 370.460498)scale(0.1 -0.1)">
       <defs>
        <path id="DejaVuSans-33" d="M 2597 2516 
Q 3050 2419 3304 2112 
Q 3559 1806 3559 1356 
Q 3559 666 3084 287 
Q 2609 -91 1734 -91 
Q 1441 -91 1130 -33 
Q 819 25 488 141 
L 488 750 
Q 750 597 1062 519 
Q 1375 441 1716 441 
Q 2309 441 2620 675 
Q 2931 909 2931 1356 
Q 2931 1769 2642 2001 
Q 2353 2234 1838 2234 
L 1294 2234 
L 1294 2753 
L 1863 2753 
Q 2328 2753 2575 2939 
Q 2822 3125 2822 3475 
Q 2822 3834 2567 4026 
Q 2313 4219 1838 4219 
Q 1578 4219 1281 4162 
Q 984 4106 628 3988 
L 628 4550 
Q 988 4650 1302 4700 
Q 1616 4750 1894 4750 
Q 2613 4750 3031 4423 
Q 3450 4097 3450 3541 
Q 3450 3153 3228 2886 
Q 3006 2619 2597 2516 
z
" transform="scale(0.015625)"/>
       </defs>
       <use xlink:href="#DejaVuSans-2212"/>
       <use xlink:href="#DejaVuSans-33" x="83.789062"/>
      </g>
     </g>
    </g>
    <g id="ytick_3">
     <g id="line2d_10">
      <g>
       <use xlink:href="#mad91f64687" x="94.77" y="323.584453" style="stroke: #000000; stroke-width: 0.8"/>
      </g>
     </g>
     <g id="text_11">
      <!-- −2 -->
      <g transform="translate(73.027812 327.383671)scale(0.1 -0.1)">
       <use xlink:href="#DejaVuSans-2212"/>
       <use xlink:href="#DejaVuSans-32" x="83.789062"/>
      </g>
     </g>
    </g>
    <g id="ytick_4">
     <g id="line2d_11">
      <g>
       <use xlink:href="#mad91f64687" x="94.77" y="280.507626" style="stroke: #000000; stroke-width: 0.8"/>
      </g>
     </g>
     <g id="text_12">
      <!-- −1 -->
      <g transform="translate(73.027812 284.306845)scale(0.1 -0.1)">
       <defs>
        <path id="DejaVuSans-31" d="M 794 531 
L 1825 531 
L 1825 4091 
L 703 3866 
L 703 4441 
L 1819 4666 
L 2450 4666 
L 2450 531 
L 3481 531 
L 3481 0 
L 794 0 
L 794 531 
z
" transform="scale(0.015625)"/>
       </defs>
       <use xlink:href="#DejaVuSans-2212"/>
       <use xlink:href="#DejaVuSans-31" x="83.789062"/>
      </g>
     </g>
    </g>
    <g id="ytick_5">
     <g id="line2d_12">
      <g>
       <use xlink:href="#mad91f64687" x="94.77" y="237.4308" style="stroke: #000000; stroke-width: 0.8"/>
      </g>
     </g>
     <g id="text_13">
      <!-- 0 -->
      <g transform="translate(81.4075 241.230019)scale(0.1 -0.1)">
       <use xlink:href="#DejaVuSans-30"/>
      </g>
     </g>
    </g>
    <g id="ytick_6">
     <g id="line2d_13">
      <g>
       <use xlink:href="#mad91f64687" x="94.77" y="194.353974" style="stroke: #000000; stroke-width: 0.8"/>
      </g>
     </g>
     <g id="text_14">
      <!-- 1 -->
      <g transform="translate(81.4075 198.153192)scale(0.1 -0.1)">
       <use xlink:href="#DejaVuSans-31"/>
      </g>
     </g>
    </g>
    <g id="ytick_7">
     <g id="line2d_14">
      <g>
       <use xlink:href="#mad91f64687" x="94.77" y="151.277147" style="stroke: #000000; stroke-width: 0.8"/>
      </g>
     </g>
     <g id="text_15">
      <!-- 2 -->
      <g transform="translate(81.4075 155.076366)scale(0.1 -0.1)">
       <use xlink:href="#DejaVuSans-32"/>
      </g>
     </g>
    </g>
    <g id="ytick_8">
     <g id="line2d_15">
      <g>
       <use xlink:href="#mad91f64687" x="94.77" y="108.200321" style="stroke: #000000; stroke-width: 0.8"/>
      </g>
     </g>
     <g id="text_16">
      <!-- 3 -->
      <g transform="translate(81.4075 111.99954)scale(0.1 -0.1)">
       <use xlink:href="#DejaVuSans-33"/>
      </g>
     </g>
    </g>
    <g id="ytick_9">
     <g id="line2d_16">
      <g>
       <use xlink:href="#mad91f64687" x="94.77" y="65.123495" style="stroke: #000000; stroke-width: 0.8"/>
      </g>
     </g>
     <g id="text_17">
      <!-- 4 -->
      <g transform="translate(81.4075 68.922714)scale(0.1 -0.1)">
       <use xlink:href="#DejaVuSans-34"/>
      </g>
     </g>
    </g>
    <g id="text_18">
     <!-- Y values -->
     <g transform="translate(66.948125 258.336269)rotate(-90)scale(0.1 -0.1)">
      <defs>
       <path id="DejaVuSans-59" d="M -13 4666 
L 666 4666 
L 1959 2747 
L 3244 4666 
L 3922 4666 
L 2272 2222 
L 2272 0 
L 1638 0 
L 1638 2222 
L -13 4666 
z
" transform="scale(0.015625)"/>
      </defs>
      <use xlink:href="#DejaVuSans-59"/>
      <use xlink:href="#DejaVuSans-20" x="61.083984"/>
      <use xlink:href="#DejaVuSans-76" x="92.871094"/>
      <use xlink:href="#DejaVuSans-61" x="152.050781"/>
      <use xlink:href="#DejaVuSans-6c" x="213.330078"/>
      <use xlink:href="#DejaVuSans-75" x="241.113281"/>
      <use xlink:href="#DejaVuSans-65" x="304.492188"/>
      <use xlink:href="#DejaVuSans-73" x="366.015625"/>
     </g>
    </g>
   </g>
   <g id="line2d_17">
    <defs>
     <path id="m0046d26737" d="M 0 1.5 
C 0.397805 1.5 0.77937 1.341951 1.06066 1.06066 
C 1.341951 0.77937 1.5 0.397805 1.5 0 
C 1.5 -0.397805 1.341951 -0.77937 1.06066 -1.06066 
C 0.77937 -1.341951 0.397805 -1.5 0 -1.5 
C -0.397805 -1.5 -0.77937 -1.341951 -1.06066 -1.06066 
C -1.341951 -0.77937 -1.5 -0.397805 -1.5 0 
C -1.5 0.397805 -1.341951 0.77937 -1.06066 1.06066 
C -0.77937 1.341951 -0.397805 1.5 0 1.5 
z
" style="stroke: #0000ff"/>
    </defs>
    <g clip-path="url(#pe6f68a7e37)">
     <use xlink:href="#m0046d26737" x="479.853143" y="208.511595" style="fill: #0000ff; stroke: #0000ff"/>
     <use xlink:href="#m0046d26737" x="542.206069" y="221.329459" style="fill: #0000ff; stroke: #0000ff"/>
     <use xlink:href="#m0046d26737" x="538.517586" y="204.816929" style="fill: #0000ff; stroke: #0000ff"/>
     <use xlink:href="#m0046d26737" x="522.189557" y="238.939422" style="fill: #0000ff; stroke: #0000ff"/>
     <use xlink:href="#m0046d26737" x="513.36814" y="210.40006" style="fill: #0000ff; stroke: #0000ff"/>
     <use xlink:href="#m0046d26737" x="507.600021" y="206.519656" style="fill: #0000ff; stroke: #0000ff"/>
     <use xlink:href="#m0046d26737" x="504.902787" y="198.298797" style="fill: #0000ff; stroke: #0000ff"/>
     <use xlink:href="#m0046d26737" x="531.888778" y="218.141237" style="fill: #0000ff; stroke: #0000ff"/>
     <use xlink:href="#m0046d26737" x="506.026519" y="193.713579" style="fill: #0000ff; stroke: #0000ff"/>
     <use xlink:href="#m0046d26737" x="508.027293" y="239.979187" style="fill: #0000ff; stroke: #0000ff"/>
     <use xlink:href="#m0046d26737" x="552.214707" y="182.688658" style="fill: #0000ff; stroke: #0000ff"/>
     <use xlink:href="#m0046d26737" x="512.028131" y="234.037116" style="fill: #0000ff; stroke: #0000ff"/>
     <use xlink:href="#m0046d26737" x="521.402069" y="195.709123" style="fill: #0000ff; stroke: #0000ff"/>
     <use xlink:href="#m0046d26737" x="533.140637" y="186.566629" style="fill: #0000ff; stroke: #0000ff"/>
     <use xlink:href="#m0046d26737" x="510.430882" y="214.693214" style="fill: #0000ff; stroke: #0000ff"/>
     <use xlink:href="#m0046d26737" x="522.215761" y="246.976991" style="fill: #0000ff; stroke: #0000ff"/>
     <use xlink:href="#m0046d26737" x="501.191916" y="198.307263" style="fill: #0000ff; stroke: #0000ff"/>
     <use xlink:href="#m0046d26737" x="533.558308" y="225.71276" style="fill: #0000ff; stroke: #0000ff"/>
     <use xlink:href="#m0046d26737" x="542.991956" y="252.305591" style="fill: #0000ff; stroke: #0000ff"/>
     <use xlink:href="#m0046d26737" x="488.302756" y="242.437071" style="fill: #0000ff; stroke: #0000ff"/>
     <use xlink:href="#m0046d26737" x="505.743865" y="230.283746" style="fill: #0000ff; stroke: #0000ff"/>
     <use xlink:href="#m0046d26737" x="517.595679" y="229.094115" style="fill: #0000ff; stroke: #0000ff"/>
     <use xlink:href="#m0046d26737" x="545.357486" y="253.220516" style="fill: #0000ff; stroke: #0000ff"/>
     <use xlink:href="#m0046d26737" x="496.316803" y="208.192237" style="fill: #0000ff; stroke: #0000ff"/>
     <use xlink:href="#m0046d26737" x="482.778474" y="184.215544" style="fill: #0000ff; stroke: #0000ff"/>
     <use xlink:href="#m0046d26737" x="491.919633" y="227.733048" style="fill: #0000ff; stroke: #0000ff"/>
     <use xlink:href="#m0046d26737" x="497.246124" y="233.724736" style="fill: #0000ff; stroke: #0000ff"/>
     <use xlink:href="#m0046d26737" x="519.776976" y="204.954974" style="fill: #0000ff; stroke: #0000ff"/>
     <use xlink:href="#m0046d26737" x="498.917692" y="188.980791" style="fill: #0000ff; stroke: #0000ff"/>
     <use xlink:href="#m0046d26737" x="515.72849" y="235.055791" style="fill: #0000ff; stroke: #0000ff"/>
     <use xlink:href="#m0046d26737" x="498.497301" y="215.490933" style="fill: #0000ff; stroke: #0000ff"/>
     <use xlink:href="#m0046d26737" x="522.547524" y="215.600573" style="fill: #0000ff; stroke: #0000ff"/>
     <use xlink:href="#m0046d26737" x="482.306963" y="238.383011" style="fill: #0000ff; stroke: #0000ff"/>
     <use xlink:href="#m0046d26737" x="530.606794" y="200.035695" style="fill: #0000ff; stroke: #0000ff"/>
     <use xlink:href="#m0046d26737" x="539.497099" y="246.7395" style="fill: #0000ff; stroke: #0000ff"/>
     <use xlink:href="#m0046d26737" x="477.889357" y="208.00732" style="fill: #0000ff; stroke: #0000ff"/>
     <use xlink:href="#m0046d26737" x="510.311901" y="230.737048" style="fill: #0000ff; stroke: #0000ff"/>
     <use xlink:href="#m0046d26737" x="561.142459" y="227.753901" style="fill: #0000ff; stroke: #0000ff"/>
     <use xlink:href="#m0046d26737" x="533.558493" y="244.042928" style="fill: #0000ff; stroke: #0000ff"/>
     <use xlink:href="#m0046d26737" x="529.909426" y="239.682062" style="fill: #0000ff; stroke: #0000ff"/>
     <use xlink:href="#m0046d26737" x="532.262549" y="201.097865" style="fill: #0000ff; stroke: #0000ff"/>
     <use xlink:href="#m0046d26737" x="483.785704" y="196.40068" style="fill: #0000ff; stroke: #0000ff"/>
     <use xlink:href="#m0046d26737" x="534.167868" y="206.66893" style="fill: #0000ff; stroke: #0000ff"/>
     <use xlink:href="#m0046d26737" x="519.777159" y="215.283202" style="fill: #0000ff; stroke: #0000ff"/>
     <use xlink:href="#m0046d26737" x="505.005231" y="241.726662" style="fill: #0000ff; stroke: #0000ff"/>
     <use xlink:href="#m0046d26737" x="480.794267" y="207.941181" style="fill: #0000ff; stroke: #0000ff"/>
     <use xlink:href="#m0046d26737" x="557.747845" y="224.010287" style="fill: #0000ff; stroke: #0000ff"/>
     <use xlink:href="#m0046d26737" x="556.789023" y="215.827396" style="fill: #0000ff; stroke: #0000ff"/>
     <use xlink:href="#m0046d26737" x="515.805556" y="215.807147" style="fill: #0000ff; stroke: #0000ff"/>
     <use xlink:href="#m0046d26737" x="513.464409" y="269.461684" style="fill: #0000ff; stroke: #0000ff"/>
     <use xlink:href="#m0046d26737" x="480.822209" y="240.365646" style="fill: #0000ff; stroke: #0000ff"/>
     <use xlink:href="#m0046d26737" x="453.570971" y="215.174786" style="fill: #0000ff; stroke: #0000ff"/>
     <use xlink:href="#m0046d26737" x="512.092367" y="225.588473" style="fill: #0000ff; stroke: #0000ff"/>
     <use xlink:href="#m0046d26737" x="520.283144" y="215.413934" style="fill: #0000ff; stroke: #0000ff"/>
     <use xlink:href="#m0046d26737" x="524.255707" y="232.098194" style="fill: #0000ff; stroke: #0000ff"/>
     <use xlink:href="#m0046d26737" x="489.591727" y="213.843234" style="fill: #0000ff; stroke: #0000ff"/>
     <use xlink:href="#m0046d26737" x="508.337049" y="241.436591" style="fill: #0000ff; stroke: #0000ff"/>
     <use xlink:href="#m0046d26737" x="509.588341" y="243.268206" style="fill: #0000ff; stroke: #0000ff"/>
     <use xlink:href="#m0046d26737" x="551.509924" y="200.957852" style="fill: #0000ff; stroke: #0000ff"/>
     <use xlink:href="#m0046d26737" x="475.378466" y="218.795793" style="fill: #0000ff; stroke: #0000ff"/>
     <use xlink:href="#m0046d26737" x="484.345727" y="171.809416" style="fill: #0000ff; stroke: #0000ff"/>
     <use xlink:href="#m0046d26737" x="487.430651" y="239.52373" style="fill: #0000ff; stroke: #0000ff"/>
     <use xlink:href="#m0046d26737" x="512.310945" y="246.67222" style="fill: #0000ff; stroke: #0000ff"/>
     <use xlink:href="#m0046d26737" x="537.823429" y="216.31018" style="fill: #0000ff; stroke: #0000ff"/>
     <use xlink:href="#m0046d26737" x="536.654751" y="199.529803" style="fill: #0000ff; stroke: #0000ff"/>
     <use xlink:href="#m0046d26737" x="485.267137" y="241.606796" style="fill: #0000ff; stroke: #0000ff"/>
     <use xlink:href="#m0046d26737" x="545.282617" y="195.381881" style="fill: #0000ff; stroke: #0000ff"/>
     <use xlink:href="#m0046d26737" x="491.291625" y="219.279629" style="fill: #0000ff; stroke: #0000ff"/>
     <use xlink:href="#m0046d26737" x="485.055239" y="213.568734" style="fill: #0000ff; stroke: #0000ff"/>
     <use xlink:href="#m0046d26737" x="533.48551" y="206.637838" style="fill: #0000ff; stroke: #0000ff"/>
    </g>
   </g>
   <g id="line2d_18">
    <defs>
     <path id="m91fd8eb0a3" d="M 0 1.5 
C 0.397805 1.5 0.77937 1.341951 1.06066 1.06066 
C 1.341951 0.77937 1.5 0.397805 1.5 0 
C 1.5 -0.397805 1.341951 -0.77937 1.06066 -1.06066 
C 0.77937 -1.341951 0.397805 -1.5 0 -1.5 
C -0.397805 -1.5 -0.77937 -1.341951 -1.06066 -1.06066 
C -1.341951 -0.77937 -1.5 -0.397805 -1.5 0 
C -1.5 0.397805 -1.341951 0.77937 -1.06066 1.06066 
C -0.77937 1.341951 -0.397805 1.5 0 1.5 
z
" style="stroke: #ff0000"/>
    </defs>
    <g clip-path="url(#pe6f68a7e37)">
     <use xlink:href="#m91fd8eb0a3" x="339.924216" y="281.050736" style="fill: #ff0000; stroke: #ff0000"/>
     <use xlink:href="#m91fd8eb0a3" x="415.351521" y="274.0675" style="fill: #ff0000; stroke: #ff0000"/>
     <use xlink:href="#m91fd8eb0a3" x="459.864355" y="270.799753" style="fill: #ff0000; stroke: #ff0000"/>
     <use xlink:href="#m91fd8eb0a3" x="367.364425" y="232.66879" style="fill: #ff0000; stroke: #ff0000"/>
     <use xlink:href="#m91fd8eb0a3" x="395.187258" y="270.977617" style="fill: #ff0000; stroke: #ff0000"/>
     <use xlink:href="#m91fd8eb0a3" x="467.558095" y="264.662576" style="fill: #ff0000; stroke: #ff0000"/>
     <use xlink:href="#m91fd8eb0a3" x="404.582971" y="249.665058" style="fill: #ff0000; stroke: #ff0000"/>
     <use xlink:href="#m91fd8eb0a3" x="377.564914" y="298.522066" style="fill: #ff0000; stroke: #ff0000"/>
     <use xlink:href="#m91fd8eb0a3" x="447.107858" y="283.855584" style="fill: #ff0000; stroke: #ff0000"/>
     <use xlink:href="#m91fd8eb0a3" x="426.145278" y="266.87873" style="fill: #ff0000; stroke: #ff0000"/>
     <use xlink:href="#m91fd8eb0a3" x="388.251167" y="277.68861" style="fill: #ff0000; stroke: #ff0000"/>
     <use xlink:href="#m91fd8eb0a3" x="414.438555" y="314.432829" style="fill: #ff0000; stroke: #ff0000"/>
     <use xlink:href="#m91fd8eb0a3" x="455.343846" y="308.849976" style="fill: #ff0000; stroke: #ff0000"/>
     <use xlink:href="#m91fd8eb0a3" x="393.033433" y="226.252851" style="fill: #ff0000; stroke: #ff0000"/>
     <use xlink:href="#m91fd8eb0a3" x="319.298156" y="261.710298" style="fill: #ff0000; stroke: #ff0000"/>
     <use xlink:href="#m91fd8eb0a3" x="398.903593" y="317.033327" style="fill: #ff0000; stroke: #ff0000"/>
     <use xlink:href="#m91fd8eb0a3" x="396.20022" y="282.572617" style="fill: #ff0000; stroke: #ff0000"/>
     <use xlink:href="#m91fd8eb0a3" x="384.219665" y="190.381475" style="fill: #ff0000; stroke: #ff0000"/>
     <use xlink:href="#m91fd8eb0a3" x="406.531606" y="259.5325" style="fill: #ff0000; stroke: #ff0000"/>
     <use xlink:href="#m91fd8eb0a3" x="374.266051" y="305.785209" style="fill: #ff0000; stroke: #ff0000"/>
     <use xlink:href="#m91fd8eb0a3" x="370.87686" y="266.414961" style="fill: #ff0000; stroke: #ff0000"/>
     <use xlink:href="#m91fd8eb0a3" x="403.073539" y="296.671531" style="fill: #ff0000; stroke: #ff0000"/>
     <use xlink:href="#m91fd8eb0a3" x="431.067565" y="266.90516" style="fill: #ff0000; stroke: #ff0000"/>
     <use xlink:href="#m91fd8eb0a3" x="364.347262" y="279.348864" style="fill: #ff0000; stroke: #ff0000"/>
     <use xlink:href="#m91fd8eb0a3" x="413.886357" y="243.948591" style="fill: #ff0000; stroke: #ff0000"/>
     <use xlink:href="#m91fd8eb0a3" x="449.595086" y="241.28792" style="fill: #ff0000; stroke: #ff0000"/>
     <use xlink:href="#m91fd8eb0a3" x="428.786158" y="187.368214" style="fill: #ff0000; stroke: #ff0000"/>
     <use xlink:href="#m91fd8eb0a3" x="372.887682" y="236.597766" style="fill: #ff0000; stroke: #ff0000"/>
     <use xlink:href="#m91fd8eb0a3" x="382.550035" y="223.912798" style="fill: #ff0000; stroke: #ff0000"/>
     <use xlink:href="#m91fd8eb0a3" x="367.936533" y="204.652205" style="fill: #ff0000; stroke: #ff0000"/>
     <use xlink:href="#m91fd8eb0a3" x="409.33008" y="290.226807" style="fill: #ff0000; stroke: #ff0000"/>
     <use xlink:href="#m91fd8eb0a3" x="408.903902" y="274.031091" style="fill: #ff0000; stroke: #ff0000"/>
     <use xlink:href="#m91fd8eb0a3" x="392.054872" y="213.88167" style="fill: #ff0000; stroke: #ff0000"/>
     <use xlink:href="#m91fd8eb0a3" x="436.246676" y="318.773327" style="fill: #ff0000; stroke: #ff0000"/>
     <use xlink:href="#m91fd8eb0a3" x="398.468075" y="270.654593" style="fill: #ff0000; stroke: #ff0000"/>
     <use xlink:href="#m91fd8eb0a3" x="406.681842" y="271.868237" style="fill: #ff0000; stroke: #ff0000"/>
     <use xlink:href="#m91fd8eb0a3" x="404.953907" y="308.240923" style="fill: #ff0000; stroke: #ff0000"/>
     <use xlink:href="#m91fd8eb0a3" x="402.569227" y="287.512966" style="fill: #ff0000; stroke: #ff0000"/>
     <use xlink:href="#m91fd8eb0a3" x="403.110556" y="264.466415" style="fill: #ff0000; stroke: #ff0000"/>
     <use xlink:href="#m91fd8eb0a3" x="431.211025" y="201.641321" style="fill: #ff0000; stroke: #ff0000"/>
     <use xlink:href="#m91fd8eb0a3" x="365.807249" y="139.552423" style="fill: #ff0000; stroke: #ff0000"/>
     <use xlink:href="#m91fd8eb0a3" x="402.010125" y="247.69186" style="fill: #ff0000; stroke: #ff0000"/>
     <use xlink:href="#m91fd8eb0a3" x="377.856495" y="308.064926" style="fill: #ff0000; stroke: #ff0000"/>
     <use xlink:href="#m91fd8eb0a3" x="367.081133" y="262.759815" style="fill: #ff0000; stroke: #ff0000"/>
     <use xlink:href="#m91fd8eb0a3" x="421.308706" y="292.857327" style="fill: #ff0000; stroke: #ff0000"/>
     <use xlink:href="#m91fd8eb0a3" x="350.938803" y="267.286444" style="fill: #ff0000; stroke: #ff0000"/>
     <use xlink:href="#m91fd8eb0a3" x="368.10388" y="292.838347" style="fill: #ff0000; stroke: #ff0000"/>
     <use xlink:href="#m91fd8eb0a3" x="391.589323" y="279.741182" style="fill: #ff0000; stroke: #ff0000"/>
     <use xlink:href="#m91fd8eb0a3" x="427.240558" y="227.021602" style="fill: #ff0000; stroke: #ff0000"/>
     <use xlink:href="#m91fd8eb0a3" x="310.569668" y="270.967682" style="fill: #ff0000; stroke: #ff0000"/>
    </g>
   </g>
   <g id="PathCollection_1">
    <path d="M 367.467842 65.123495 
L 370.995591 72.156446 
L 374.523341 79.189397 
L 375.40582 80.948717 
L 378.05109 86.222349 
L 381.578839 93.2553 
L 384.173273 98.427586 
L 385.106589 100.288251 
L 388.634338 107.321202 
L 392.162087 114.354154 
L 392.940727 115.906455 
L 395.689837 121.387105 
L 399.217586 128.420056 
L 401.70818 133.385324 
L 402.745335 135.453007 
L 406.273085 142.485958 
L 409.800834 149.51891 
L 410.475633 150.864194 
L 413.328583 156.551861 
L 416.856333 163.584812 
L 419.243086 168.343063 
L 420.384082 170.617763 
L 423.911831 177.650715 
L 427.439581 184.683666 
L 428.010539 185.821932 
L 430.96733 191.716617 
L 434.49508 198.749568 
L 436.777992 203.300802 
L 438.022829 205.782519 
L 441.550578 212.815471 
L 445.078328 219.848422 
L 445.545445 220.779671 
L 448.606077 226.881373 
L 452.133826 233.914324 
L 454.312898 238.25854 
L 455.661576 240.947276 
L 459.189325 247.980227 
L 462.717074 255.013178 
L 463.080351 255.73741 
L 466.244824 262.046129 
L 469.772573 269.079081 
L 471.847804 273.216279 
L 473.300322 276.112032 
L 476.828072 283.144983 
L 480.355821 290.177934 
L 480.615257 290.695148 
L 483.88357 297.210885 
L 487.41132 304.243837 
L 489.38271 308.174017 
L 490.939069 311.276788 
L 494.466818 318.309739 
L 497.994568 325.34269 
L 498.150163 325.652887 
L 501.522317 332.375642 
L 505.050066 339.408593 
L 506.917616 343.131756 
L 508.577816 346.441544 
L 512.105565 353.474495 
L 515.633315 360.507446 
L 515.685069 360.610625 
L 519.161064 367.540398 
L 522.688813 374.573349 
L 524.452522 378.089495 
L 526.216563 381.6063 
L 529.744312 388.639251 
L 533.219975 395.568364 
L 533.272061 395.672203 
L 536.799811 402.705154 
L 540.32756 409.738105 
" clip-path="url(#pe6f68a7e37)" style="fill: none; stroke: #ff0000"/>
   </g>
   <g id="PathCollection_2">
    <path d="M 372.886315 65.123495 
L 375.40582 70.146402 
L 376.414064 72.156446 
L 379.941814 79.189397 
L 383.469563 86.222349 
L 384.173273 87.625272 
L 386.997312 93.2553 
L 390.525062 100.288251 
L 392.940727 105.104141 
L 394.052811 107.321202 
L 397.58056 114.354154 
L 401.10831 121.387105 
L 401.70818 122.58301 
L 404.636059 128.420056 
L 408.163809 135.453007 
L 410.475633 140.06188 
L 411.691558 142.485958 
L 415.219307 149.51891 
L 418.747057 156.551861 
L 419.243086 157.540749 
L 422.274806 163.584812 
L 425.802555 170.617763 
L 428.010539 175.019618 
L 429.330305 177.650715 
L 432.858054 184.683666 
L 436.385803 191.716617 
L 436.777992 192.498487 
L 439.913553 198.749568 
L 443.441302 205.782519 
L 445.545445 209.977357 
L 446.969051 212.815471 
L 450.496801 219.848422 
L 454.02455 226.881373 
L 454.312898 227.456226 
L 457.552299 233.914324 
L 461.080049 240.947276 
L 463.080351 244.935095 
L 464.607798 247.980227 
L 468.135547 255.013178 
L 471.663297 262.046129 
L 471.847804 262.413965 
L 475.191046 269.079081 
L 478.718795 276.112032 
L 480.615257 279.892834 
L 482.246545 283.144983 
L 485.774294 290.177934 
L 489.302043 297.210885 
L 489.38271 297.371703 
L 492.829793 304.243837 
L 496.357542 311.276788 
L 498.150163 314.850572 
L 499.885292 318.309739 
L 503.413041 325.34269 
L 506.917616 332.329442 
L 506.94079 332.375642 
L 510.46854 339.408593 
L 513.996289 346.441544 
L 515.685069 349.808311 
L 517.524038 353.474495 
L 521.051788 360.507446 
L 524.452522 367.28718 
L 524.579537 367.540398 
L 528.107286 374.573349 
L 531.635036 381.6063 
L 533.219975 384.76605 
L 535.162785 388.639251 
L 538.690534 395.672203 
L 541.987428 402.244919 
L 542.218284 402.705154 
L 545.746033 409.738105 
" clip-path="url(#pe6f68a7e37)" style="fill: none; stroke: #000000; stroke-width: 2"/>
   </g>
   <g id="PathCollection_3">
    <path d="M 378.304788 65.123495 
L 381.832537 72.156446 
L 384.173273 76.822957 
L 385.360287 79.189397 
L 388.888036 86.222349 
L 392.415786 93.2553 
L 392.940727 94.301827 
L 395.943535 100.288251 
L 399.471284 107.321202 
L 401.70818 111.780696 
L 402.999034 114.354154 
L 406.526783 121.387105 
L 410.054532 128.420056 
L 410.475633 129.259565 
L 413.582282 135.453007 
L 417.110031 142.485958 
L 419.243086 146.738435 
L 420.63778 149.51891 
L 424.16553 156.551861 
L 427.693279 163.584812 
L 428.010539 164.217304 
L 431.221028 170.617763 
L 434.748778 177.650715 
L 436.777992 181.696173 
L 438.276527 184.683666 
L 441.804276 191.716617 
L 445.332026 198.749568 
L 445.545445 199.175042 
L 448.859775 205.782519 
L 452.387524 212.815471 
L 454.312898 216.653912 
L 455.915274 219.848422 
L 459.443023 226.881373 
L 462.970772 233.914324 
L 463.080351 234.132781 
L 466.498522 240.947276 
L 470.026271 247.980227 
L 471.847804 251.61165 
L 473.55402 255.013178 
L 477.08177 262.046129 
L 480.609519 269.079081 
L 480.615257 269.09052 
L 484.137269 276.112032 
L 487.665018 283.144983 
L 489.38271 286.569389 
L 491.192767 290.177934 
L 494.720517 297.210885 
L 498.150163 304.048258 
L 498.248266 304.243837 
L 501.776015 311.276788 
L 505.303765 318.309739 
L 506.917616 321.527128 
L 508.831514 325.34269 
L 512.359263 332.375642 
L 515.685069 339.005997 
L 515.887013 339.408593 
L 519.414762 346.441544 
L 522.942511 353.474495 
L 524.452522 356.484866 
L 526.470261 360.507446 
L 529.99801 367.540398 
L 533.219975 373.963735 
L 533.525759 374.573349 
L 537.053509 381.6063 
L 540.581258 388.639251 
L 541.987428 391.442605 
L 544.109007 395.672203 
L 547.636757 402.705154 
L 550.754882 408.921474 
L 551.164506 409.738105 
" clip-path="url(#pe6f68a7e37)" style="fill: none; stroke: #0000ff"/>
   </g>
   <g id="patch_3">
    <path d="M 94.77 418.4424 
L 94.77 56.4192 
" style="fill: none; stroke: #000000; stroke-width: 0.8; stroke-linejoin: miter; stroke-linecap: square"/>
   </g>
   <g id="patch_4">
    <path d="M 682.344 418.4424 
L 682.344 56.4192 
" style="fill: none; stroke: #000000; stroke-width: 0.8; stroke-linejoin: miter; stroke-linecap: square"/>
   </g>
   <g id="patch_5">
    <path d="M 94.77 418.4424 
L 682.344 418.4424 
" style="fill: none; stroke: #000000; stroke-width: 0.8; stroke-linejoin: miter; stroke-linecap: square"/>
   </g>
   <g id="patch_6">
    <path d="M 94.77 56.4192 
L 682.344 56.4192 
" style="fill: none; stroke: #000000; stroke-width: 0.8; stroke-linejoin: miter; stroke-linecap: square"/>
   </g>
   <g id="text_19">
    <!-- Decision Boundary for an SVM with a Linear Kernel -->
    <g transform="translate(236.139187 50.4192)scale(0.12 -0.12)">
     <defs>
      <path id="DejaVuSans-44" d="M 1259 4147 
L 1259 519 
L 2022 519 
Q 2988 519 3436 956 
Q 3884 1394 3884 2338 
Q 3884 3275 3436 3711 
Q 2988 4147 2022 4147 
L 1259 4147 
z
M 628 4666 
L 1925 4666 
Q 3281 4666 3915 4102 
Q 4550 3538 4550 2338 
Q 4550 1131 3912 565 
Q 3275 0 1925 0 
L 628 0 
L 628 4666 
z
" transform="scale(0.015625)"/>
      <path id="DejaVuSans-63" d="M 3122 3366 
L 3122 2828 
Q 2878 2963 2633 3030 
Q 2388 3097 2138 3097 
Q 1578 3097 1268 2742 
Q 959 2388 959 1747 
Q 959 1106 1268 751 
Q 1578 397 2138 397 
Q 2388 397 2633 464 
Q 2878 531 3122 666 
L 3122 134 
Q 2881 22 2623 -34 
Q 2366 -91 2075 -91 
Q 1284 -91 818 406 
Q 353 903 353 1747 
Q 353 2603 823 3093 
Q 1294 3584 2113 3584 
Q 2378 3584 2631 3529 
Q 2884 3475 3122 3366 
z
" transform="scale(0.015625)"/>
      <path id="DejaVuSans-69" d="M 603 3500 
L 1178 3500 
L 1178 0 
L 603 0 
L 603 3500 
z
M 603 4863 
L 1178 4863 
L 1178 4134 
L 603 4134 
L 603 4863 
z
" transform="scale(0.015625)"/>
      <path id="DejaVuSans-6f" d="M 1959 3097 
Q 1497 3097 1228 2736 
Q 959 2375 959 1747 
Q 959 1119 1226 758 
Q 1494 397 1959 397 
Q 2419 397 2687 759 
Q 2956 1122 2956 1747 
Q 2956 2369 2687 2733 
Q 2419 3097 1959 3097 
z
M 1959 3584 
Q 2709 3584 3137 3096 
Q 3566 2609 3566 1747 
Q 3566 888 3137 398 
Q 2709 -91 1959 -91 
Q 1206 -91 779 398 
Q 353 888 353 1747 
Q 353 2609 779 3096 
Q 1206 3584 1959 3584 
z
" transform="scale(0.015625)"/>
      <path id="DejaVuSans-6e" d="M 3513 2113 
L 3513 0 
L 2938 0 
L 2938 2094 
Q 2938 2591 2744 2837 
Q 2550 3084 2163 3084 
Q 1697 3084 1428 2787 
Q 1159 2491 1159 1978 
L 1159 0 
L 581 0 
L 581 3500 
L 1159 3500 
L 1159 2956 
Q 1366 3272 1645 3428 
Q 1925 3584 2291 3584 
Q 2894 3584 3203 3211 
Q 3513 2838 3513 2113 
z
" transform="scale(0.015625)"/>
      <path id="DejaVuSans-42" d="M 1259 2228 
L 1259 519 
L 2272 519 
Q 2781 519 3026 730 
Q 3272 941 3272 1375 
Q 3272 1813 3026 2020 
Q 2781 2228 2272 2228 
L 1259 2228 
z
M 1259 4147 
L 1259 2741 
L 2194 2741 
Q 2656 2741 2882 2914 
Q 3109 3088 3109 3444 
Q 3109 3797 2882 3972 
Q 2656 4147 2194 4147 
L 1259 4147 
z
M 628 4666 
L 2241 4666 
Q 2963 4666 3353 4366 
Q 3744 4066 3744 3513 
Q 3744 3084 3544 2831 
Q 3344 2578 2956 2516 
Q 3422 2416 3680 2098 
Q 3938 1781 3938 1306 
Q 3938 681 3513 340 
Q 3088 0 2303 0 
L 628 0 
L 628 4666 
z
" transform="scale(0.015625)"/>
      <path id="DejaVuSans-64" d="M 2906 2969 
L 2906 4863 
L 3481 4863 
L 3481 0 
L 2906 0 
L 2906 525 
Q 2725 213 2448 61 
Q 2172 -91 1784 -91 
Q 1150 -91 751 415 
Q 353 922 353 1747 
Q 353 2572 751 3078 
Q 1150 3584 1784 3584 
Q 2172 3584 2448 3432 
Q 2725 3281 2906 2969 
z
M 947 1747 
Q 947 1113 1208 752 
Q 1469 391 1925 391 
Q 2381 391 2643 752 
Q 2906 1113 2906 1747 
Q 2906 2381 2643 2742 
Q 2381 3103 1925 3103 
Q 1469 3103 1208 2742 
Q 947 2381 947 1747 
z
" transform="scale(0.015625)"/>
      <path id="DejaVuSans-72" d="M 2631 2963 
Q 2534 3019 2420 3045 
Q 2306 3072 2169 3072 
Q 1681 3072 1420 2755 
Q 1159 2438 1159 1844 
L 1159 0 
L 581 0 
L 581 3500 
L 1159 3500 
L 1159 2956 
Q 1341 3275 1631 3429 
Q 1922 3584 2338 3584 
Q 2397 3584 2469 3576 
Q 2541 3569 2628 3553 
L 2631 2963 
z
" transform="scale(0.015625)"/>
      <path id="DejaVuSans-79" d="M 2059 -325 
Q 1816 -950 1584 -1140 
Q 1353 -1331 966 -1331 
L 506 -1331 
L 506 -850 
L 844 -850 
Q 1081 -850 1212 -737 
Q 1344 -625 1503 -206 
L 1606 56 
L 191 3500 
L 800 3500 
L 1894 763 
L 2988 3500 
L 3597 3500 
L 2059 -325 
z
" transform="scale(0.015625)"/>
      <path id="DejaVuSans-66" d="M 2375 4863 
L 2375 4384 
L 1825 4384 
Q 1516 4384 1395 4259 
Q 1275 4134 1275 3809 
L 1275 3500 
L 2222 3500 
L 2222 3053 
L 1275 3053 
L 1275 0 
L 697 0 
L 697 3053 
L 147 3053 
L 147 3500 
L 697 3500 
L 697 3744 
Q 697 4328 969 4595 
Q 1241 4863 1831 4863 
L 2375 4863 
z
" transform="scale(0.015625)"/>
      <path id="DejaVuSans-53" d="M 3425 4513 
L 3425 3897 
Q 3066 4069 2747 4153 
Q 2428 4238 2131 4238 
Q 1616 4238 1336 4038 
Q 1056 3838 1056 3469 
Q 1056 3159 1242 3001 
Q 1428 2844 1947 2747 
L 2328 2669 
Q 3034 2534 3370 2195 
Q 3706 1856 3706 1288 
Q 3706 609 3251 259 
Q 2797 -91 1919 -91 
Q 1588 -91 1214 -16 
Q 841 59 441 206 
L 441 856 
Q 825 641 1194 531 
Q 1563 422 1919 422 
Q 2459 422 2753 634 
Q 3047 847 3047 1241 
Q 3047 1584 2836 1778 
Q 2625 1972 2144 2069 
L 1759 2144 
Q 1053 2284 737 2584 
Q 422 2884 422 3419 
Q 422 4038 858 4394 
Q 1294 4750 2059 4750 
Q 2388 4750 2728 4690 
Q 3069 4631 3425 4513 
z
" transform="scale(0.015625)"/>
      <path id="DejaVuSans-56" d="M 1831 0 
L 50 4666 
L 709 4666 
L 2188 738 
L 3669 4666 
L 4325 4666 
L 2547 0 
L 1831 0 
z
" transform="scale(0.015625)"/>
      <path id="DejaVuSans-4d" d="M 628 4666 
L 1569 4666 
L 2759 1491 
L 3956 4666 
L 4897 4666 
L 4897 0 
L 4281 0 
L 4281 4097 
L 3078 897 
L 2444 897 
L 1241 4097 
L 1241 0 
L 628 0 
L 628 4666 
z
" transform="scale(0.015625)"/>
      <path id="DejaVuSans-77" d="M 269 3500 
L 844 3500 
L 1563 769 
L 2278 3500 
L 2956 3500 
L 3675 769 
L 4391 3500 
L 4966 3500 
L 4050 0 
L 3372 0 
L 2619 2869 
L 1863 0 
L 1184 0 
L 269 3500 
z
" transform="scale(0.015625)"/>
      <path id="DejaVuSans-74" d="M 1172 4494 
L 1172 3500 
L 2356 3500 
L 2356 3053 
L 1172 3053 
L 1172 1153 
Q 1172 725 1289 603 
Q 1406 481 1766 481 
L 2356 481 
L 2356 0 
L 1766 0 
Q 1100 0 847 248 
Q 594 497 594 1153 
L 594 3053 
L 172 3053 
L 172 3500 
L 594 3500 
L 594 4494 
L 1172 4494 
z
" transform="scale(0.015625)"/>
      <path id="DejaVuSans-68" d="M 3513 2113 
L 3513 0 
L 2938 0 
L 2938 2094 
Q 2938 2591 2744 2837 
Q 2550 3084 2163 3084 
Q 1697 3084 1428 2787 
Q 1159 2491 1159 1978 
L 1159 0 
L 581 0 
L 581 4863 
L 1159 4863 
L 1159 2956 
Q 1366 3272 1645 3428 
Q 1925 3584 2291 3584 
Q 2894 3584 3203 3211 
Q 3513 2838 3513 2113 
z
" transform="scale(0.015625)"/>
      <path id="DejaVuSans-4c" d="M 628 4666 
L 1259 4666 
L 1259 531 
L 3531 531 
L 3531 0 
L 628 0 
L 628 4666 
z
" transform="scale(0.015625)"/>
      <path id="DejaVuSans-4b" d="M 628 4666 
L 1259 4666 
L 1259 2694 
L 3353 4666 
L 4166 4666 
L 1850 2491 
L 4331 0 
L 3500 0 
L 1259 2247 
L 1259 0 
L 628 0 
L 628 4666 
z
" transform="scale(0.015625)"/>
     </defs>
     <use xlink:href="#DejaVuSans-44"/>
     <use xlink:href="#DejaVuSans-65" x="77.001953"/>
     <use xlink:href="#DejaVuSans-63" x="138.525391"/>
     <use xlink:href="#DejaVuSans-69" x="193.505859"/>
     <use xlink:href="#DejaVuSans-73" x="221.289062"/>
     <use xlink:href="#DejaVuSans-69" x="273.388672"/>
     <use xlink:href="#DejaVuSans-6f" x="301.171875"/>
     <use xlink:href="#DejaVuSans-6e" x="362.353516"/>
     <use xlink:href="#DejaVuSans-20" x="425.732422"/>
     <use xlink:href="#DejaVuSans-42" x="457.519531"/>
     <use xlink:href="#DejaVuSans-6f" x="526.123047"/>
     <use xlink:href="#DejaVuSans-75" x="587.304688"/>
     <use xlink:href="#DejaVuSans-6e" x="650.683594"/>
     <use xlink:href="#DejaVuSans-64" x="714.0625"/>
     <use xlink:href="#DejaVuSans-61" x="777.539062"/>
     <use xlink:href="#DejaVuSans-72" x="838.818359"/>
     <use xlink:href="#DejaVuSans-79" x="879.931641"/>
     <use xlink:href="#DejaVuSans-20" x="939.111328"/>
     <use xlink:href="#DejaVuSans-66" x="970.898438"/>
     <use xlink:href="#DejaVuSans-6f" x="1006.103516"/>
     <use xlink:href="#DejaVuSans-72" x="1067.285156"/>
     <use xlink:href="#DejaVuSans-20" x="1108.398438"/>
     <use xlink:href="#DejaVuSans-61" x="1140.185547"/>
     <use xlink:href="#DejaVuSans-6e" x="1201.464844"/>
     <use xlink:href="#DejaVuSans-20" x="1264.84375"/>
     <use xlink:href="#DejaVuSans-53" x="1296.630859"/>
     <use xlink:href="#DejaVuSans-56" x="1360.107422"/>
     <use xlink:href="#DejaVuSans-4d" x="1428.515625"/>
     <use xlink:href="#DejaVuSans-20" x="1514.794922"/>
     <use xlink:href="#DejaVuSans-77" x="1546.582031"/>
     <use xlink:href="#DejaVuSans-69" x="1628.369141"/>
     <use xlink:href="#DejaVuSans-74" x="1656.152344"/>
     <use xlink:href="#DejaVuSans-68" x="1695.361328"/>
     <use xlink:href="#DejaVuSans-20" x="1758.740234"/>
     <use xlink:href="#DejaVuSans-61" x="1790.527344"/>
     <use xlink:href="#DejaVuSans-20" x="1851.806641"/>
     <use xlink:href="#DejaVuSans-4c" x="1883.59375"/>
     <use xlink:href="#DejaVuSans-69" x="1939.306641"/>
     <use xlink:href="#DejaVuSans-6e" x="1967.089844"/>
     <use xlink:href="#DejaVuSans-65" x="2030.46875"/>
     <use xlink:href="#DejaVuSans-61" x="2091.992188"/>
     <use xlink:href="#DejaVuSans-72" x="2153.271484"/>
     <use xlink:href="#DejaVuSans-20" x="2194.384766"/>
     <use xlink:href="#DejaVuSans-4b" x="2226.171875"/>
     <use xlink:href="#DejaVuSans-65" x="2286.748047"/>
     <use xlink:href="#DejaVuSans-72" x="2348.271484"/>
     <use xlink:href="#DejaVuSans-6e" x="2387.634766"/>
     <use xlink:href="#DejaVuSans-65" x="2451.013672"/>
     <use xlink:href="#DejaVuSans-6c" x="2512.537109"/>
    </g>
   </g>
   <g id="legend_1">
    <g id="patch_7">
     <path d="M 101.77 108.453575 
L 227.6825 108.453575 
Q 229.6825 108.453575 229.6825 106.453575 
L 229.6825 63.4192 
Q 229.6825 61.4192 227.6825 61.4192 
L 101.77 61.4192 
Q 99.77 61.4192 99.77 63.4192 
L 99.77 106.453575 
Q 99.77 108.453575 101.77 108.453575 
z
" style="fill: #ffffff; opacity: 0.8; stroke: #cccccc; stroke-linejoin: miter"/>
    </g>
    <g id="line2d_19">
     <path d="M 103.77 69.517637 
L 113.77 69.517637 
L 123.77 69.517637 
" style="fill: none; stroke: #0000ff; stroke-linecap: square"/>
    </g>
    <g id="text_20">
     <!-- Class A  -->
     <g transform="translate(131.77 73.017637)scale(0.1 -0.1)">
      <defs>
       <path id="DejaVuSans-43" d="M 4122 4306 
L 4122 3641 
Q 3803 3938 3442 4084 
Q 3081 4231 2675 4231 
Q 1875 4231 1450 3742 
Q 1025 3253 1025 2328 
Q 1025 1406 1450 917 
Q 1875 428 2675 428 
Q 3081 428 3442 575 
Q 3803 722 4122 1019 
L 4122 359 
Q 3791 134 3420 21 
Q 3050 -91 2638 -91 
Q 1578 -91 968 557 
Q 359 1206 359 2328 
Q 359 3453 968 4101 
Q 1578 4750 2638 4750 
Q 3056 4750 3426 4639 
Q 3797 4528 4122 4306 
z
" transform="scale(0.015625)"/>
       <path id="DejaVuSans-41" d="M 2188 4044 
L 1331 1722 
L 3047 1722 
L 2188 4044 
z
M 1831 4666 
L 2547 4666 
L 4325 0 
L 3669 0 
L 3244 1197 
L 1141 1197 
L 716 0 
L 50 0 
L 1831 4666 
z
" transform="scale(0.015625)"/>
      </defs>
      <use xlink:href="#DejaVuSans-43"/>
      <use xlink:href="#DejaVuSans-6c" x="69.824219"/>
      <use xlink:href="#DejaVuSans-61" x="97.607422"/>
      <use xlink:href="#DejaVuSans-73" x="158.886719"/>
      <use xlink:href="#DejaVuSans-73" x="210.986328"/>
      <use xlink:href="#DejaVuSans-20" x="263.085938"/>
      <use xlink:href="#DejaVuSans-41" x="294.873047"/>
      <use xlink:href="#DejaVuSans-20" x="363.28125"/>
     </g>
    </g>
    <g id="line2d_20">
     <path d="M 103.77 84.195763 
L 113.77 84.195763 
L 123.77 84.195763 
" style="fill: none; stroke: #ff0000; stroke-linecap: square"/>
    </g>
    <g id="text_21">
     <!-- Class B -->
     <g transform="translate(131.77 87.695763)scale(0.1 -0.1)">
      <use xlink:href="#DejaVuSans-43"/>
      <use xlink:href="#DejaVuSans-6c" x="69.824219"/>
      <use xlink:href="#DejaVuSans-61" x="97.607422"/>
      <use xlink:href="#DejaVuSans-73" x="158.886719"/>
      <use xlink:href="#DejaVuSans-73" x="210.986328"/>
      <use xlink:href="#DejaVuSans-20" x="263.085938"/>
      <use xlink:href="#DejaVuSans-42" x="294.873047"/>
     </g>
    </g>
    <g id="line2d_21">
     <path d="M 103.77 98.873887 
L 113.77 98.873887 
L 123.77 98.873887 
" style="fill: none; stroke: #000000; stroke-width: 2; stroke-linecap: square"/>
    </g>
    <g id="text_22">
     <!-- Decision Boundary -->
     <g transform="translate(131.77 102.373887)scale(0.1 -0.1)">
      <use xlink:href="#DejaVuSans-44"/>
      <use xlink:href="#DejaVuSans-65" x="77.001953"/>
      <use xlink:href="#DejaVuSans-63" x="138.525391"/>
      <use xlink:href="#DejaVuSans-69" x="193.505859"/>
      <use xlink:href="#DejaVuSans-73" x="221.289062"/>
      <use xlink:href="#DejaVuSans-69" x="273.388672"/>
      <use xlink:href="#DejaVuSans-6f" x="301.171875"/>
      <use xlink:href="#DejaVuSans-6e" x="362.353516"/>
      <use xlink:href="#DejaVuSans-20" x="425.732422"/>
      <use xlink:href="#DejaVuSans-42" x="457.519531"/>
      <use xlink:href="#DejaVuSans-6f" x="526.123047"/>
      <use xlink:href="#DejaVuSans-75" x="587.304688"/>
      <use xlink:href="#DejaVuSans-6e" x="650.683594"/>
      <use xlink:href="#DejaVuSans-64" x="714.0625"/>
      <use xlink:href="#DejaVuSans-61" x="777.539062"/>
      <use xlink:href="#DejaVuSans-72" x="838.818359"/>
      <use xlink:href="#DejaVuSans-79" x="879.931641"/>
     </g>
    </g>
   </g>
  </g>
 </g>
 <defs>
  <clipPath id="pe6f68a7e37">
   <rect x="94.77" y="56.4192" width="587.574" height="362.0232"/>
  </clipPath>
 </defs>
</svg>
